<!DOCTYPE svg PUBLIC "-//W3C//DTD SVG 1.1//EN" "http://www.w3.org/Graphics/SVG/1.1/DTD/svg11.dtd">
<!-- Uploaded to: SVG Repo, www.svgrepo.com, Transformed by: SVG Repo Mixer Tools -->
<svg fill="#ffffff" width="800px" height="800px" viewBox="0 0 24.00 24.00" id="bag" data-name="Flat Color" xmlns="http://www.w3.org/2000/svg" class="icon flat-color" stroke="#ffffff" stroke-width="0.00024000000000000003">
<g id="SVGRepo_bgCarrier" stroke-width="0"/>
<g id="SVGRepo_tracerCarrier" stroke-linecap="round" stroke-linejoin="round"/>
<g id="SVGRepo_iconCarrier">
<path id="primary" d="M19.07,8.85a2,2,0,0,0-2-1.85H6.93a2,2,0,0,0-2,1.85l-.84,11a2,2,0,0,0,.52,1.51A2,2,0,0,0,6.08,22H17.92a2,2,0,0,0,2-2.15Z" style="fill: #ffffff;"/>
<path id="secondary" d="M15,12a1,1,0,0,1-1-1V6a2,2,0,0,0-4,0v5a1,1,0,0,1-2,0V6a4,4,0,0,1,8,0v5A1,1,0,0,1,15,12Z" style="fill: #ffffff;"/>
</g>
</svg>