<svg width="12" height="12" viewBox="0 0 12 12" fill="none" xmlns="http://www.w3.org/2000/svg">
<path d="M11.7617 5.65448C10.492 2.97992 8.57285 1.63394 6.00008 1.63394C3.42597 1.63394 1.50811 2.97992 0.23847 5.65582C0.187544 5.76365 0.161133 5.88143 0.161133 6.00068C0.161133 6.11994 0.187544 6.23771 0.23847 6.34555C1.50811 9.0201 3.42731 10.3661 6.00008 10.3661C8.57418 10.3661 10.492 9.0201 11.7617 6.34421C11.8648 6.12725 11.8648 5.87546 11.7617 5.65448ZM6.00008 9.4018C3.83981 9.4018 2.25811 8.30626 1.14249 6.00001C2.25811 3.69376 3.83981 2.59823 6.00008 2.59823C8.16035 2.59823 9.74204 3.69376 10.8577 6.00001C9.74338 8.30626 8.16168 9.4018 6.00008 9.4018ZM5.94651 3.64287C4.64472 3.64287 3.58936 4.69823 3.58936 6.00001C3.58936 7.3018 4.64472 8.35716 5.94651 8.35716C7.24829 8.35716 8.30365 7.3018 8.30365 6.00001C8.30365 4.69823 7.24829 3.64287 5.94651 3.64287ZM5.94651 7.50001C5.11749 7.50001 4.44651 6.82903 4.44651 6.00001C4.44651 5.171 5.11749 4.50001 5.94651 4.50001C6.77552 4.50001 7.44651 5.171 7.44651 6.00001C7.44651 6.82903 6.77552 7.50001 5.94651 7.50001Z" fill="black"/>
</svg>
