<svg id="Ñëîé_1" data-name="Ñëîé 1" xmlns="http://www.w3.org/2000/svg" viewBox="0 0 450.67 450.67"><defs><style>.cls-1{fill:#fbfefe;}.cls-2{fill:none;stroke:#fafdfd;stroke-miterlimit:10;stroke-width:16.1px;}</style></defs><path class="cls-1" d="M232.14,273.12v-8H221.67v8H183.28l2.63,5.24,2.63,5.24,11.14,22.16h54.45l11.14-22.16,2.63-5.24,2.63-5.24Zm18.76,27.4h-48l-8.5-16.92h27.26v4.89a5.24,5.24,0,1,0,10.47,0V283.6H259.4Z"/><path class="cls-1" d="M279,262.41v5.44l.19-.39A5.22,5.22,0,0,0,279,262.41Zm-104.46,5,.19.39v-5.44A5.22,5.22,0,0,0,174.58,267.46Zm47.09-7.59v10.48h10.47V259.87Zm43,13.25L262,278.36l-2.63,5.24-8.5,16.92h-48l-8.5-16.92-2.63-5.24-2.64-5.24H177.42l2.63,5.24,2.63,5.24L195,308.11a5.24,5.24,0,0,0,4.68,2.89h54.45a5.24,5.24,0,0,0,4.68-2.89l12.32-24.51,2.63-5.24,2.63-5.24Z"/><path class="cls-1" d="M164.29,178.59l-35.2,48.95v52.7l35.2-33.63,5.24-5,5.24-5V164Zm-30,89.4V229.23l30-41.66v51.79Z"/><path class="cls-1" d="M173.29,157.1l-3.76,5.23-5.24,7.29-39.45,54.86a5.29,5.29,0,0,0-1,3.06v52.7a5.25,5.25,0,0,0,3.18,4.82,5.34,5.34,0,0,0,2.06.42,5.22,5.22,0,0,0,3.62-1.45l31.58-30.17,5.24-5,5.24-5V155.72A5.24,5.24,0,0,0,173.29,157.1Zm-39,72.13,30-41.66,5.24-7.29,2.77-3.86v55.29l-2.77,2.65-5.24,5-30,28.63Z"/><path class="cls-1" d="M289.52,178.59,279,164V236.6l5.24,5,5.24,5,35.2,33.63v-52.7Zm30,89.4-30-28.63V187.57l30,41.66Z"/><path class="cls-1" d="M329,224.48l-39.45-54.86-5.24-7.29-3.76-5.23a5.24,5.24,0,0,0-1.48-1.38v88.12l5.24,5,5.24,5L321.1,284a5.22,5.22,0,0,0,3.62,1.45,5.34,5.34,0,0,0,2.06-.42,5.24,5.24,0,0,0,3.17-4.82v-52.7A5.28,5.28,0,0,0,329,224.48ZM319.48,268l-30-28.63-5.24-5-2.77-2.65V176.42l2.77,3.86,5.24,7.29,30,41.66Z"/><path class="cls-1" d="M226.9,92.89a26.2,26.2,0,1,0,26.2,26.19A26.22,26.22,0,0,0,226.9,92.89Zm0,41.91a15.72,15.72,0,1,1,15.72-15.72A15.73,15.73,0,0,1,226.9,134.8Z"/><path class="cls-1" d="M226.9,182.66a5.24,5.24,0,0,0-5.23,5.24v72h10.47v-72A5.24,5.24,0,0,0,226.9,182.66Zm0,0a5.24,5.24,0,0,0-5.23,5.24v72h10.47v-72A5.24,5.24,0,0,0,226.9,182.66Zm0,0a5.24,5.24,0,0,0-5.23,5.24v85.22h10.47V187.9A5.24,5.24,0,0,0,226.9,182.66Zm0,0a5.24,5.24,0,0,0-5.23,5.24v85.22h10.47V187.9A5.24,5.24,0,0,0,226.9,182.66ZM226.9,41c-5.62,0-57.37,24.64-57.37,99V273.83a4.7,4.7,0,0,0,4.86,4.53h105a4.7,4.7,0,0,0,4.86-4.53V140C284.28,65.64,232.53,41,226.9,41ZM279,273.12h-46.9V187.9a5.24,5.24,0,1,0-10.47,0v85.22h-46.9V140c0-67.53,44.57-92.07,52.13-93.76C234.47,48,279,72.51,279,140ZM226.9,182.66a5.24,5.24,0,0,0-5.23,5.24v85.22h10.47V187.9A5.24,5.24,0,0,0,226.9,182.66Zm0,0a5.24,5.24,0,0,0-5.23,5.24v72h10.47v-72A5.24,5.24,0,0,0,226.9,182.66Zm-5.23,87.69v2.77h10.47v-2.77Zm5.23-87.69a5.24,5.24,0,0,0-5.23,5.24v72h10.47v-72A5.24,5.24,0,0,0,226.9,182.66Zm0,0a5.24,5.24,0,0,0-5.23,5.24v72h10.47v-72A5.24,5.24,0,0,0,226.9,182.66Z"/><path class="cls-1" d="M261.63,59.15c-14.41-16.33-30-23.39-34.73-23.39s-20.31,7.06-34.72,23.39C179.45,73.58,164.29,99.31,164.29,140V273.83a10,10,0,0,0,10.1,9.77h105a10,10,0,0,0,10.1-9.77V140C289.52,99.31,274.36,73.58,261.63,59.15Zm17.41,214H174.77V140c0-67.53,44.57-92.07,52.13-93.76C234.47,48,279,72.51,279,140Z"/><path class="cls-1" d="M226.9,98.13a21,21,0,1,0,21,21A21,21,0,0,0,226.9,98.13Zm0,36.67a15.72,15.72,0,1,1,15.72-15.72A15.73,15.73,0,0,1,226.9,134.8Z"/><path class="cls-1" d="M226.9,92.89a26.2,26.2,0,1,0,26.2,26.19A26.22,26.22,0,0,0,226.9,92.89Zm0,41.91a15.72,15.72,0,1,1,15.72-15.72A15.73,15.73,0,0,1,226.9,134.8Z"/><path class="cls-1" d="M207,401a5.24,5.24,0,0,1-5.24-5.24V324.46a5.24,5.24,0,1,1,10.47,0v71.26A5.24,5.24,0,0,1,207,401Z"/><path class="cls-1" d="M246.81,423a5.24,5.24,0,0,1-5.24-5.24V322.37a5.24,5.24,0,0,1,10.48,0v95.35A5.23,5.23,0,0,1,246.81,423Z"/><path class="cls-1" d="M226.9,371.62a5.24,5.24,0,0,1-5.23-5.24V324.46a5.24,5.24,0,1,1,10.47,0v41.92A5.24,5.24,0,0,1,226.9,371.62Z"/><path class="cls-1" d="M232.14,187.9V288.49a5.24,5.24,0,1,1-10.47,0V187.9a5.24,5.24,0,1,1,10.47,0Z"/><circle class="cls-2" cx="225.33" cy="225.33" r="217.29"/></svg>