<?xml version="1.0" encoding="UTF-8"?>
<svg xmlns="http://www.w3.org/2000/svg" baseProfile="tiny" version="1.2" viewBox="0 0 100 90">
  <!-- Generator: Adobe Illustrator 28.6.0, SVG Export Plug-In . SVG Version: 1.2.0 Build 709)  -->
  <g>
    <g id="Layer_1">
      <g>
        <g>
          <path d="M0,84.2c0-1.8,0-3.5,0-5.3,0-.3,0-.4.3-.4,1.4,0,2.7,0,4.1,0,3,0,5.2,1.9,5.5,4.8.3,2.2-.3,4.1-2.2,5.4-1,.7-2.1,1-3.3,1-1.4,0-2.8,0-4.2,0-.3,0-.2-.1-.2-.3,0-1.8,0-3.5,0-5.3h0ZM2.1,84.1c0,1.2,0,2.4,0,3.6,0,.2,0,.3.3.3.7,0,1.4,0,2.1,0,1.5,0,2.6-.9,3.1-2.3.3-.8.3-1.7.2-2.5-.2-1.7-1.4-2.9-3.1-3-.7,0-1.5,0-2.2,0-.2,0-.3.1-.3.3,0,1.2,0,2.4,0,3.6Z" fill="#14523c"/>
          <path d="M27.2,89.9c-3.2,0-5.7-2.2-5.7-5.7,0-3.4,2.4-5.8,5.8-5.8,3.3,0,5.6,2.4,5.6,5.8,0,3.3-2.3,5.7-5.7,5.7ZM30.7,83.9c0-.1,0-.3,0-.4-.2-1.4-.7-2.5-2-3-1.8-.8-3.9,0-4.6,1.7-.5,1.1-.5,2.2-.2,3.3.6,2.5,3.6,3.5,5.6,1.9,1.1-.9,1.3-2.1,1.3-3.4Z" fill="#16533c"/>
          <path d="M98.1,79.3q0-.8.7-.8c.3,0,.6,0,1,0,.2,0,.2,0,.2.2,0,.1,0,.3,0,.4,0,3.4,0,6.8,0,10.2,0,.3,0,.4-.4.5-.8,0-1.3-.2-1.8-.9-1.6-2.1-3.3-4.2-4.9-6.3-.1-.2-.2-.3-.4-.5,0,.1,0,.2,0,.3,0,2.3,0,4.7,0,7,0,.3,0,.4-.3.4-.4,0-.9,0-1.3,0-.2,0-.2,0-.2-.2,0-3.6,0-7.1,0-10.7,0-.2,0-.3.3-.3,1.5,0,1.1-.2,2,1,1.7,2.2,3.4,4.3,5.1,6.5,0,0,0,.1.2.1,0-.1,0-.2,0-.3.2.1.1-.1.1-.1,0-2.3,0-4.5,0-6.8,0,0,0-.1,0-.2,0,.3,0,.5,0,.7Z" fill="#16533c"/>
          <path d="M64.8,85c.4.2.6.6.8.9.8,1.2,1.7,2.4,2.5,3.6,0,0,0,.1.1.2-.8,0-1.5,0-2.2,0-.2,0-.4-.2-.5-.4-.7-1.1-1.4-2.1-2.1-3.2-.4-.7-.9-.9-1.7-.7-.2,0-.1.2-.1.3,0,1.2,0,2.4,0,3.6,0,.4,0,.5-.5.4-.5,0-.9,0-1.4,0-.2,0-.2,0-.2-.2,0-3.6,0-7.1,0-10.7,0-.3,0-.3.3-.3,1.2,0,2.4,0,3.5,0,.8,0,1.6.2,2.4.5,1,.5,1.5,1.3,1.5,2.4,0,1.7-.7,2.8-2.2,3.4,0,0,0,0-.1,0ZM61.5,82h0c0,.5,0,1.1,0,1.6,0,.1,0,.3.2.3.7,0,1.3,0,2-.1.9-.2,1.4-1,1.4-2,0-.8-.6-1.4-1.5-1.5-.6-.1-1.2,0-1.8,0-.2,0-.2,0-.2.3,0,.5,0,1,0,1.6Z" fill="#15523a"/>
          <path d="M52.8,78.6c.4,0,.8-.1,1,0,.2.2.3.6.4.9,1.3,3.3,2.6,6.5,3.8,9.8,0,0,0,.2.1.3,0,.1,0,.2-.1.2-.5,0-1.1,0-1.6,0-.4,0-.5-.3-.6-.6-.2-.6-.5-1.2-.7-1.8,0-.3-.2-.3-.5-.3-1.3,0-2.6,0-4,0-.2,0-.3,0-.4.3-.2.6-.4,1.2-.6,1.8-.2.6-.4.7-1.1.7-.4,0-.7,0-1.1,0-.3,0-.3-.1-.2-.3.4-.9.7-1.8,1.1-2.6,1-2.6,2.1-5.3,3.1-7.9.1-.3.2-.4.5-.3.2,0,.5,0,.7,0,0,0,0,0,0,0ZM52.8,80.6c-.6,1.5-1.1,3-1.6,4.5-.1.3,0,.4.3.4.9,0,1.9,0,2.8,0,.2,0,.3,0,.2-.3-.6-1.5-1.1-3-1.6-4.5Z" fill="#15523a"/>
          <path d="M15.6,78.5c.2,0,.4,0,.6,0,.4,0,.5,0,.6.4,1.3,3.5,2.7,6.9,4.1,10.4.2.4.2.4-.3.4-.4,0-.7,0-1.1,0-.4,0-.7-.2-.9-.6-.2-.7-.5-1.3-.7-2,0-.2-.2-.3-.4-.3-1.4,0-2.7,0-4.1,0-.2,0-.3.1-.4.3-.2.6-.4,1.2-.7,1.8-.2.6-.4.7-1.1.7-.4,0-.7,0-1.1,0-.4,0-.3-.1-.2-.3.9-2.2,1.7-4.4,2.6-6.6.5-1.3,1-2.6,1.6-4,0-.2.2-.3.4-.3.2,0,.5,0,.7,0h0ZM15.5,80.6c-.1.4-.2.7-.3,1.1-.4,1.2-.8,2.3-1.3,3.5,0,.2-.1.3.1.3,1,0,2,0,3,0,.2,0,.2,0,.2-.2,0-.2-.2-.5-.3-.7-.5-1.3-1-2.6-1.4-3.9Z" fill="#15523a"/>
          <path d="M43.2,89.9c-1.4,0-2.6-.4-3.7-1.3-.7-.6-1.2-1.5-1.4-2.4-.4-1.5-.4-2.9.1-4.4,1-2.5,3.3-3.6,5.8-3.4,1.1.1,2.1.5,3,1.2.2.2.2.3,0,.5-.2.2-.3.5-.5.7-.2.3-.5.3-.8.2-.2,0-.4-.2-.5-.3-1.3-.7-3.6-.8-4.7,1.2-.8,1.5-.8,4,.6,5.3.6.6,1.3.9,2.2.9.9,0,1.8-.2,2.5-.8.4-.3.6-.3.9,0,0,.1.2.2.3.3q.4.5,0,.9c-1,1-2.2,1.3-3.6,1.3Z" fill="#16533c"/>
          <path d="M71.5,80.3c-.8,0-1.5,0-2.3,0-.3,0-.5,0-.8,0-.2,0-.3,0-.3-.3,0-.4,0-.8,0-1.2,0-.2,0-.3.2-.3,2.8,0,5.6,0,8.4,0,.2,0,.3,0,.3.3,0,.4,0,.8,0,1.2,0,.2,0,.3-.3.2-.9,0-1.8,0-2.7,0-.3,0-.4.1-.4.4,0,2.9,0,5.8,0,8.7,0,.3,0,.4-.4.4-.5,0-1,0-1.5,0,0-.2,0-.4,0-.6,0-2.8,0-5.6,0-8.4,0-.1,0-.3-.1-.4Z" fill="#14523c"/>
          <path d="M79.8,87.5c-.6-1-1.2-2.1-1.8-3.1,0-.1,0-.2,0-.3,1-1.8,2.1-3.6,3.1-5.4,0-.1.1-.2.3-.2,1.2,0,2.4,0,3.6,0-.6.9-1.2,1.9-1.7,2.9-.5,1-1.1,1.9-1.6,2.9-.7,1-1.3,2.1-1.9,3.2Z" fill="#15523a"/>
          <path d="M79.8,87.5c.6-1.1,1.2-2.2,1.9-3.2.3.6.6,1.1.9,1.7.2.4.5.8.7,1.2.5.9,1,1.9,1.6,2.8-1.1,0-2.3,0-3.4,0-.1,0-.2,0-.3-.1-.4-.8-.9-1.6-1.3-2.3Z" fill="#b87f32"/>
          <path d="M83.3,81.4c.5-1,1.1-2,1.7-2.9.6,1.1,1.3,2.2,1.9,3.3.4.7.8,1.4,1.2,2.1,0,.1.2.2.2.4-1.1,0-2.1,0-3.2,0-.5-.9-1.1-1.9-1.6-2.8,0,0,0,0-.1,0Z" fill="#b87f32"/>
          <path d="M85,84.3c1.1,0,2.1,0,3.2,0-.5,1-1.1,1.9-1.6,2.9-.5.8-1,1.7-1.5,2.5,0,.1,0,.3-.3.3-.5-.9-1-1.9-1.6-2.8,0,0,0,0,.1,0,.5-.9,1.1-1.9,1.6-2.8Z" fill="#15523a"/>
          <path d="M71.5,80.3c.2,0,.1.3.1.4,0,2.8,0,5.6,0,8.4,0,.2,0,.4,0,.6-.2,0-.2,0-.2-.2,0-.2,0-.5,0-.7,0,0,0,0,0,0,0,0,0,0,0,0,0-1.5,0-2.9,0-4.4,0-1.4,0-2.7,0-4.1Z" fill="#15523a"/>
          <path d="M98.1,79.3c.1-.2,0-.4,0-.7,0,.1,0,.2,0,.2,0,2.3,0,4.5,0,6.8,0,0,.1.3-.1.1,0-.1,0-.2,0-.4,0,0,0,0,0,0,0,0,0,0,0,0,0-.4,0-.7,0-1.1,0,0,0-.2,0-.3,0-.9,0-1.7,0-2.6,0-.2,0-.4,0-.6,0-.5,0-1,0-1.5Z" fill="#15523a"/>
          <path d="M98.1,80.8c0,.2,0,.4,0,.6,0-.2,0-.4,0-.6Z" fill="#16533c"/>
          <path d="M98.1,84c0,0,0,.2,0,.3,0,0,0-.2,0-.3Z" fill="#16533c"/>
          <path d="M98.1,85.4s0,0,0,0c0,0,0,0,0,0,0,0,0,0,0,0Z" fill="#16533c"/>
          <path d="M71.5,88.8s0,0,0,0c0,0,0,0,0,0,0,0,0,0,0,0Z" fill="#14523c"/>
        </g>
        <g>
          <path d="M50.1,9c2.8-2.1,5.6-4.2,8.4-6.3,1.1-.8,2.3-1.7,3.4-2.5.4-.3.7-.3,1.1,0,5.6,3.3,11.2,6.5,16.7,9.7,5.5,3.2,10.9,6.4,16.4,9.5.3.2.6.2.8.6-3,2.3-6.1,4.5-9.1,6.8-.8.6-1.6,1.3-2.5,1.9-.4.3-.6.6-.6,1.1,0,6.6,0,13.2,0,19.8,0,.7-.2,1.1-.8,1.4-3.9,2.2-7.7,4.4-11.5,6.6-1.4.8-2.9,1.5-4.2,2.5-1.1.5-2.1,1.1-3.1,1.7-.4.2-.7.3-1.2,0-4.1-2.4-8.2-4.7-12.3-7.1-.4-.2-.8-.3-1.2,0-.7.4-1.4.7-2.1,1.1-2.1,1.2-3.9.6-5.8-.5-.7-.4-.7-1.3,0-1.8.3-.3.7-.5,1.1-.7,3.1-1.8,6.3-3.5,9.4-5.2,3.5-2,7-4.1,10.5-6.1.9-.5,2-.9,2.7-1.7.2,0,.4-.1.6-.2,4-2.3,8-4.7,12.1-7,1.5-.9,3-1.7,4.4-2.5,1-.6,1-.8,0-1.4-2.3-1.3-4.6-2.7-7-4.1-3.7-2.1-7.4-4.3-11.1-6.4-3.2-1.8-6.4-3.7-9.6-5.5-1.6-.9-3.1-1.9-4.7-2.8-.7-.4-.9-.3-.9.4,0,6.8,0,13.6,0,20.3-.3,0-.4.1-.6.2-5.2,3-10.4,6-15.6,9-.1,0-.2,0-.4-.2-3.7-2.1-7.4-4.3-11.1-6.4-2.1-1.2-4.1-2.4-6.2-3.6-.2,0-.4-.1-.4-.3,0-.2.2-.3.3-.4.5-.3,1-.5,1.5-.8,3.4-2,6.8-4,10.3-5.9,2.6-1.5,5.2-3,7.8-4.5,2.8-1.6,5.6-3.4,8.4-5,1.5-.9,2.9-1.8,4.5-2.5.6-.3,1.1-.6,1.5-1Z" fill="#b87f32"/>
          <path d="M50.1,9c-.4.5-1,.8-1.5,1-1.6.7-3,1.7-4.5,2.5-2.8,1.6-5.6,3.4-8.4,5-2.6,1.5-5.2,3-7.8,4.5-3.4,2-6.8,4-10.3,5.9-.5.3-1,.6-1.5.8-.2,0-.3.2-.3.4,0,.2.2.3.4.3,2.1,1.2,4.2,2.4,6.2,3.6,3.7,2.1,7.4,4.3,11.1,6.4.1,0,.2.1.4.2.2.1.3.3.5.4,4.5,2.6,9,5.3,13.5,7.9.5.3,1,.5,1.4.9-2.2,1.2-4.3,2.4-6.5,3.6-.8.4-1.4,1-1.3,2,0,1,.7,1.5,1.5,1.8.5.2,1,.4,1.4.6,1.3.5,2.6.4,3.8-.2.7-.3,1.4-.7,2.1-1.1.6-.4,1-.3,1.6,0,2.8,1.6,5.7,3.2,8.5,4.9,1.2.7,2.4,1.2,3.4,2.1h0s0,0,0,0c0,0,0,0-.1,0-.8.3-1.4.8-2.2,1.1-.6.3-1.1.2-1.7.1,0,0-.1-.2-.2-.2-3.1-1.8-6.1-3.5-9.2-5.3-.1,0-.3-.2-.4,0,.1.3.4.4.6.5,1.3.7,2.6,1.5,3.8,2.2,1.7,1,3.4,1.9,5.1,2.9,1,.6-.1.7-.3,1-.3,0-.6.3-.9.5,0,0-.1,0-.2.1-.3,0-.6.3-.9.5h0s0,0,0,0c-.8.2-1.4,0-2.1-.4-1.5-.9-3-1.8-4.6-2.6-.2-.1-.4-.3-.7-.2,0,.3.2.3.4.4,1.7,1,3.5,2,5.2,3,.2.1.6.1.4.6,0,0,0,0,0,0-.2,0-.4.2-.6.3-.5.3-1,.5-1.4.8-.2,0-.3.1-.5.2-.1,0-.2,0-.3,0-.1,0-.2,0-.3,0-.1,0-.2,0-.4,0,0,0-.2,0-.3-.1-1-.6-2.2-.9-3-2-.4-.6-1.1-.9-1.9-.6-.6.2-.7,0-.9-.6-.4-1.2-1.4-1.8-2.6-1.6-.5.1-.6,0-.7-.5-.3-1.4-1.7-2.3-3.1-1.9-.5.2-.6.1-.7-.4-.3-2-2.5-3-4.2-1.9-.5.3-1.1.6-1.4,1.1-.6,1-1.2.7-1.9.2-3.6-2.1-7.2-4.2-10.8-6.3-1.9-1.1-3.7-2.2-5.6-3.3.2-.2.2-.4.2-.6,0-6.5,0-13.1,0-19.6,0-.2.1-.5-.3-.6,0-.5-.2-.7-.6-1-3.9-2.9-7.8-5.8-11.7-8.7.8-.7,1.8-1.1,2.6-1.6C16.1,12.4,26.5,6.4,36.8.4c.7-.4,1.2-.4,1.8,0,3.8,2.9,7.6,5.7,11.5,8.6Z" fill="#14523c"/>
          <path d="M48.3,69.8c-.5.3-1,.7-1.5,1-1,.7-3,0-2.7-1.5.1-.6,0-.9-.7-.5-1.3.7-2.7-.2-2.7-1.7,0-.3,0-.6,0-.9-.9.4-1.9.7-2.8-.1-.8-.8-.7-1.7-.3-2.9-.4.3-.7.5-1,.7,0,0-.2,0-.2,0-.8.4-1.6.2-2.2-.3-.7-.6-.9-1.3-.7-2.3.3-1.4,1.5-1.9,2.5-2.3.7-.3,1.6-.3,2.3.4.6.6.9,1.3.6,2.2-.1.3-.1.6-.4,1.1.5-.4.8-.6,1.1-.8.9-.6,1.7-.5,2.5,0,.6.5.8,1.4.5,2.3,0,.1-.2.2,0,.3.1.1.2,0,.3,0,.3-.1.6-.3.9-.4,1.2-.4,2.6.8,2.4,2,0,.2-.3.5,0,.6.2.1.4-.1.6-.3.5-.4,1.1-.5,1.6-.2.6.3,1,.7,1.1,1.5.1,1-.6,1.5-1.2,2Z" fill="#b87f32"/>
          <path d="M15.5,29.7c.4,0,.3.4.3.6,0,6.5,0,13.1,0,19.6,0,.2,0,.5-.2.6-.2-.1-.1-.3,0-.5,0,0,0,0,0,0,0,0,0,0,0-.1,0-3.2,0-6.5,0-9.7,0,0,0,0,0,0,0,0,0,0,0,0v-5s0,0,0,0c0,0,0,0,0,0v-5.3Z" fill="#15523a"/>
          <path d="M49.1,70.1c0-.2,0-.3,0-.4.6-.5.8-1.1.6-1.8,0-.4.2-.4.5-.2.7.4,1.3.7,2,1.1,0,.2.5.2,0,.5-1,.6-2,1.3-3.2.9Z" fill="#16533c"/>
          <path d="M15.5,50s0,0,0,.1c0,0,0,0,0,0,0,0,0,0,0-.1Z" fill="#14523c"/>
          <path d="M15.5,40.2s0,0,0,0c0,0,0,0,0,0,0,0,0,0,0-.1Z" fill="#14523c"/>
          <path d="M15.5,35.1s0,0,0,0c0,0,0,0,0,0,0,0,0,0,0-.1Z" fill="#14523c"/>
          <path d="M66.2,39.6c-1.4-.6-2.7-1.5-4.1-2.3-3.8-2.2-7.6-4.4-11.4-6.6-.2-.1-.5-.2-.7-.3,0-6.8,0-13.6,0-20.3,0-.7.2-.8.9-.4,1.6.9,3.1,1.9,4.7,2.8,3.2,1.9,6.4,3.7,9.6,5.5,3.7,2.1,7.4,4.3,11.1,6.4,2.3,1.3,4.6,2.7,7,4.1,1,.6,1,.7,0,1.4-1.5.9-3,1.7-4.4,2.5-4,2.3-8,4.7-12.1,7-.2.1-.4.1-.6.2Z" fill="#14523c"/>
        </g>
      </g>
    </g>
  </g>
</svg>