<svg width="24" height="24" viewBox="0 0 24 24" fill="none" xmlns="http://www.w3.org/2000/svg">
<path d="M23.3511 8.63104C23.2473 8.35238 23.0611 8.11198 22.8171 7.94196C22.5732 7.77193 22.2832 7.68036 21.9859 7.67948H16.0755C15.9749 7.67955 15.8768 7.64839 15.7947 7.5903C15.7126 7.5322 15.6506 7.45004 15.6172 7.35517L13.4956 1.34189C13.3917 1.06396 13.2054 0.824397 12.9616 0.655267C12.7177 0.486137 12.4281 0.395508 12.1314 0.395508C11.8347 0.395508 11.545 0.486137 11.3012 0.655267C11.0574 0.824397 10.8711 1.06396 10.7672 1.34189L10.7623 1.35743L8.64556 7.35517C8.61222 7.44989 8.55034 7.53193 8.46844 7.59001C8.38653 7.6481 8.28863 7.67935 8.18823 7.67948H2.27593C1.97669 7.67926 1.68464 7.77121 1.43951 7.94283C1.19437 8.11445 1.00805 8.35741 0.905883 8.63867C0.803714 8.91993 0.790656 9.22583 0.868486 9.51477C0.946315 9.80371 1.11125 10.0617 1.34087 10.2536L6.37443 14.4288C6.44973 14.4913 6.50439 14.575 6.53124 14.6691C6.5581 14.7632 6.5559 14.8632 6.52494 14.956L4.41014 21.2975C4.31241 21.5907 4.31048 21.9074 4.40463 22.2018C4.49878 22.4961 4.68414 22.7529 4.93388 22.935C5.18363 23.1171 5.48482 23.215 5.79388 23.2145C6.10295 23.2141 6.40386 23.1154 6.65311 22.9326L11.844 19.1264C11.9272 19.0654 12.0277 19.0325 12.1309 19.0325C12.2341 19.0325 12.3346 19.0654 12.4178 19.1264L17.6067 22.9316C17.8559 23.115 18.1569 23.2143 18.4663 23.2151C18.7756 23.2159 19.0772 23.1182 19.3273 22.9362C19.5774 22.7541 19.763 22.4972 19.8573 22.2025C19.9516 21.9079 19.9496 21.5909 19.8516 21.2975L17.7369 14.9521C17.7059 14.8593 17.7037 14.7593 17.7305 14.6652C17.7574 14.5711 17.8121 14.4874 17.8874 14.4249L22.9306 10.2438C23.1573 10.0503 23.3192 9.79193 23.3943 9.50352C23.4695 9.21512 23.4544 8.91059 23.3511 8.63104V8.63104Z" fill="#A8ADB3"/>
</svg>
