<svg width="23" height="24" viewBox="0 0 23 24" fill="none" xmlns="http://www.w3.org/2000/svg">
<path d="M22.8198 8.63104C22.7161 8.35238 22.5298 8.11198 22.2859 7.94196C22.042 7.77193 21.752 7.68036 21.4546 7.67948H15.5443C15.4437 7.67955 15.3456 7.64839 15.2635 7.5903C15.1814 7.5322 15.1193 7.45004 15.0859 7.35517L12.9644 1.34189C12.8604 1.06396 12.6741 0.824397 12.4303 0.655267C12.1865 0.486137 11.8969 0.395508 11.6001 0.395508C11.3034 0.395508 11.0138 0.486137 10.77 0.655267C10.5262 0.824397 10.3398 1.06396 10.2359 1.34189L10.231 1.35743L8.11431 7.35517C8.08097 7.44989 8.01909 7.53193 7.93719 7.59001C7.85528 7.6481 7.75738 7.67935 7.65698 7.67948H1.74468C1.44544 7.67926 1.15339 7.77121 0.908257 7.94283C0.663124 8.11445 0.476802 8.35741 0.374633 8.63867C0.272464 8.91993 0.259406 9.22583 0.337236 9.51477C0.415065 9.80371 0.580005 10.0617 0.809621 10.2536L5.84318 14.4288C5.91848 14.4913 5.97314 14.575 5.99999 14.6691C6.02685 14.7632 6.02465 14.8632 5.99369 14.956L3.87889 21.2975C3.78116 21.5907 3.77923 21.9074 3.87338 22.2018C3.96753 22.4961 4.15289 22.7529 4.40263 22.935C4.65238 23.1171 4.95357 23.215 5.26263 23.2145C5.5717 23.2141 5.87261 23.1154 6.12186 22.9326L11.3127 19.1264C11.396 19.0654 11.4965 19.0325 11.5996 19.0325C11.7028 19.0325 11.8033 19.0654 11.8866 19.1264L17.0755 22.9316C17.3246 23.115 17.6257 23.2143 17.935 23.2151C18.2444 23.2159 18.5459 23.1182 18.796 22.9362C19.0461 22.7541 19.2318 22.4972 19.3261 22.2025C19.4203 21.9079 19.4183 21.5909 19.3204 21.2975L17.2056 14.9521C17.1746 14.8593 17.1724 14.7593 17.1993 14.6652C17.2262 14.5711 17.2808 14.4874 17.3561 14.4249L22.3994 10.2438C22.6261 10.0503 22.7879 9.79193 22.8631 9.50352C22.9383 9.21512 22.9232 8.91059 22.8198 8.63104V8.63104Z" fill="#2E62FC"/>
</svg>
